<?xml version="1.0" encoding="utf-8"?>
<svg viewBox="19.3255 126.6081 236.0411 46.7837" xmlns="http://www.w3.org/2000/svg">
  <g transform="matrix(1, 0, 0, 1, 0, 3.552713678800501e-15)">
    <g data-v-fde0c5aa="" id="60b77f2f-3e05-4f68-bd03-3e9c8ac8abe0" fill="#ffffff" transform="matrix(3.399839, 0, 0, 3.399839, 75.005211, 117.247055)" style="">
      <path d="M6.10 6.53L5.91 7.45C5.40 6.78 4.62 6.36 3.60 6.36C1.88 6.36 0.51 7.69 0.51 9.84C0.51 12.00 1.88 13.31 3.60 13.31C4.61 13.31 5.38 12.89 5.89 12.22L6.10 13.15L7.26 13.15L7.26 6.53ZM3.94 12.12C2.74 12.12 1.95 11.14 1.95 9.84C1.95 8.55 2.74 7.55 3.94 7.55C5.18 7.55 5.98 8.55 5.98 9.84C5.98 11.14 5.18 12.12 3.94 12.12ZM11.90 13.33C13.34 13.33 14.86 12.67 14.86 10.31L14.86 6.53L13.45 6.53L13.45 10.32C13.45 11.43 12.91 12.12 11.90 12.12C10.89 12.12 10.35 11.43 10.35 10.32L10.35 6.53L8.94 6.53L8.94 10.31C8.94 12.67 10.46 13.33 11.90 13.33ZM19.69 6.53L18.27 6.53L18.27 4.64L16.87 4.64L16.87 6.53L16.00 6.53L16.00 7.67L16.87 7.67L16.87 13.15L18.29 13.15L18.27 7.67L19.69 7.67ZM23.68 13.34C25.77 13.34 27.23 11.81 27.23 9.84C27.23 7.89 25.77 6.36 23.68 6.36C21.57 6.36 20.13 7.89 20.13 9.84C20.13 11.81 21.57 13.34 23.68 13.34ZM23.68 12.13C22.46 12.13 21.60 11.14 21.60 9.84C21.60 8.56 22.46 7.57 23.68 7.57C24.89 7.57 25.75 8.56 25.75 9.84C25.75 11.14 24.89 12.13 23.68 12.13ZM35.92 6.36C34.75 6.36 34.17 6.80 33.75 7.41C33.32 6.66 32.59 6.36 31.84 6.36C31.08 6.36 30.39 6.72 30.01 7.38L29.85 6.53L28.61 6.53L28.61 13.15L30.03 13.15L30.03 9.26C30.11 8.15 30.64 7.57 31.49 7.57C32.39 7.57 32.75 8.31 32.75 9.39L32.75 13.15L34.17 13.15L34.17 9.60C34.17 8.30 34.69 7.57 35.61 7.57C36.53 7.57 36.90 8.31 36.90 9.38L36.90 13.15L38.31 13.15L38.31 9.28C38.31 7.12 37.17 6.36 35.92 6.36ZM44.54 6.53L42.58 11.35L40.63 6.53L39.13 6.53L41.88 12.99L40.45 16.22L41.91 16.22L46.05 6.53ZM51.89 6.53L51.70 7.45C51.19 6.78 50.41 6.36 49.39 6.36C47.67 6.36 46.30 7.69 46.30 9.84C46.30 12.00 47.67 13.31 49.39 13.31C50.40 13.31 51.17 12.89 51.68 12.22L51.89 13.15L53.05 13.15L53.05 6.53ZM49.73 12.12C48.53 12.12 47.75 11.14 47.75 9.84C47.75 8.55 48.53 7.55 49.73 7.55C50.97 7.55 51.77 8.55 51.77 9.84C51.77 11.14 50.97 12.12 49.73 12.12Z" style="fill: rgb(74, 26, 55);"/>
    </g>
    <g data-v-fde0c5aa="" id="909ac0db-ab61-4f14-b562-79b60c57990b" stroke="none" fill="#D4406E" transform="matrix(1.461992, 0, 0, 1.461992, 19.325525, 126.608131)" style="">
      <path d="M0 32h32V0H0v32zM2.038 2.038h27.923v27.923H2.038V2.038z"/>
      <path d="M4.038 27.962h23.923V4.038H4.038v23.924zM21.049 8.25h3.402v3.402h-3.402V8.25zm0 6.049h3.402v3.402h-3.402v-3.402zm0 6.049h3.402v3.402h-3.402v-3.402zM14.299 8.25h3.402v3.402h-3.402V8.25zm0 6.049h3.402v3.402h-3.402v-3.402zm0 6.049h3.402v3.402h-3.402v-3.402zM7.549 8.25h3.402v3.402H7.549V8.25zm0 6.049h3.402v3.402H7.549v-3.402zm0 6.049h3.402v3.402H7.549v-3.402z"/>
    </g>
  </g>
</svg>